<svg viewBox="0 0 200 200" xmlns="http://www.w3.org/2000/svg">
<defs><clipPath id="c"><circle cx="100" cy="100" r="100"/></clipPath></defs>
<g clip-path="url(#c)">
<rect width="200" height="200" fill="#d6efe7"/>
<path d="M34 200 C36 152 66 134 100 134 C134 134 164 152 166 200 Z" fill="#0f766e"/>
<path d="M84 132 h32 v10 a16 16 0 0 1 -32 0 z" fill="#eab38c"/>
<circle cx="100" cy="84" r="42" fill="#f3c49e"/>
<path d="M58 90 C54 46 146 46 142 90 C142 66 124 54 100 54 C76 54 58 66 58 90 Z" fill="#3a2b22"/>
<ellipse cx="59" cy="100" rx="8" ry="22" fill="#3a2b22"/>
<ellipse cx="141" cy="100" rx="8" ry="22" fill="#3a2b22"/>
<circle cx="85" cy="84" r="4.5" fill="#2d2b35"/>
<circle cx="115" cy="84" r="4.5" fill="#2d2b35"/>
<path d="M84 101 Q100 115 116 101" stroke="#b06a45" stroke-width="3.5" fill="none" stroke-linecap="round"/>
</g>
</svg>
