<svg width="842" height="595" viewBox="0 0 842 595" fill="none" xmlns="http://www.w3.org/2000/svg">
<g clip-path="url(#clip0_13_3773)">
<rect width="595" height="842" transform="matrix(0 1 -1 0 842 0)" fill="white"/>
<path d="M607.699 369.86C567.3 464.983 459.687 518.272 366.364 503.897C351.179 501.558 309.548 494.591 272.689 461.72C201.733 398.442 186.559 273.143 243.796 184.842C285.456 120.575 360.134 84.1436 431.093 85.9659C446.377 86.3584 504.954 88.7775 556.433 131.226C563.994 137.461 580.671 152.276 595.701 175.78C630.994 230.972 634.028 307.867 607.699 369.86Z" fill="url(#paint0_linear_13_3773)"/>
<path d="M307.14 101.78C297.093 102.654 289.39 111.068 289.362 121.152C289.187 182.823 288.898 395.542 292.918 470.832C293.344 478.808 299.883 485.074 307.87 485.16C347.375 485.586 461.011 486.367 525.522 482.241C538.959 481.381 549.415 470.253 549.398 456.788C549.32 392.063 548.286 210.032 539.42 126.828C538.357 116.859 530.343 109.078 520.348 108.299C477.262 104.942 362.845 96.9358 307.14 101.78Z" fill="url(#paint1_linear_13_3773)"/>
<path d="M305.22 137.314C304.444 190.068 302.235 365.558 306.091 430.328C306.654 439.795 314.008 447.27 323.089 447.586C360.475 448.889 456.345 451.41 510.974 445.399C520.81 444.317 528.328 435.79 528.591 425.466C529.957 371.631 533.648 208.183 529.9 144.136C529.302 133.919 521.497 125.767 511.712 125.108C471.232 122.38 367.283 116.09 320.829 119.958C312.109 120.684 305.354 128.181 305.22 137.314Z" fill="white"/>
<path d="M395.549 110.953C395.581 112.41 396.743 113.587 398.2 113.632C405.394 113.85 425.659 114.471 434.716 114.797C436.502 114.861 437.867 113.227 437.49 111.48C437.459 111.425 437.227 109.186 434.94 109.027C428.813 108.601 410.327 107.452 398.112 108.157C395.604 108.301 395.467 111.154 395.549 110.953Z" fill="#AFD445"/>
<path d="M593.326 405.517C612.394 405.517 627.853 390.059 627.853 370.99C627.853 351.921 612.394 336.463 593.326 336.463C574.257 336.463 558.799 351.921 558.799 370.99C558.799 390.059 574.257 405.517 593.326 405.517Z" fill="url(#paint2_linear_13_3773)"/>
<path d="M593.326 404.368C611.76 404.368 626.705 389.424 626.705 370.989C626.705 352.555 611.76 337.611 593.326 337.611C574.891 337.611 559.947 352.555 559.947 370.989C559.947 389.424 574.891 404.368 593.326 404.368Z" fill="url(#paint3_linear_13_3773)"/>
<path opacity="0.58" d="M565.802 357.491C565.746 357.491 565.689 357.479 565.636 357.452C565.455 357.361 565.383 357.139 565.474 356.959C570.813 346.381 581.485 339.81 593.326 339.81C595.216 339.81 597.108 339.981 598.95 340.316C599.15 340.353 599.282 340.544 599.246 340.744C599.21 340.943 599.018 341.078 598.819 341.039C597.02 340.711 595.171 340.545 593.326 340.545C581.764 340.545 571.343 346.961 566.13 357.289C566.065 357.417 565.936 357.491 565.802 357.491Z" fill="white"/>
<path opacity="0.78" d="M614.024 391.694C625.057 380.662 625.057 362.774 614.024 351.742C602.991 340.709 585.104 340.709 574.071 351.742C563.039 362.774 563.039 380.661 574.071 391.694C585.104 402.727 602.991 402.727 614.024 391.694Z" fill="white"/>
<path d="M591.281 392.719V389.646C588.077 389.517 584.908 388.761 582.657 387.776C581.853 387.424 581.443 386.522 581.674 385.675L582.455 382.812C582.741 381.762 583.883 381.219 584.887 381.64C587.12 382.576 589.877 383.316 592.85 383.316C595.936 383.316 598.238 382.27 598.238 380.125C598.238 378.19 596.459 377.04 592.17 375.889C586.05 374.215 581.656 371.547 581.656 366.16C581.656 361.295 585.213 357.581 591.386 356.588V353.514C591.386 352.525 592.187 351.723 593.176 351.723H594.982C595.971 351.723 596.773 352.525 596.773 353.514V356.273C599.738 356.392 601.896 356.899 603.609 357.501C604.486 357.809 604.966 358.754 604.722 359.652L604.004 362.3C603.727 363.321 602.636 363.88 601.647 363.506C600.07 362.91 597.84 362.289 594.942 362.289C591.281 362.289 590.235 363.806 590.235 365.166C590.235 366.84 592.432 367.99 597.191 369.455C603.991 371.495 606.816 374.319 606.816 379.393C606.816 384.049 603.364 388.233 596.668 389.28V392.719C596.668 393.708 595.866 394.51 594.877 394.51H593.071C592.083 394.51 591.281 393.708 591.281 392.719Z" fill="url(#paint4_linear_13_3773)"/>
<path d="M418.065 474.076C431.582 474.076 442.54 463.118 442.54 449.6C442.54 436.083 431.582 425.125 418.065 425.125C404.548 425.125 393.59 436.083 393.59 449.6C393.59 463.118 404.548 474.076 418.065 474.076Z" fill="url(#paint5_linear_13_3773)"/>
<path d="M418.065 473.262C431.133 473.262 441.726 462.668 441.726 449.601C441.726 436.533 431.133 425.939 418.065 425.939C404.997 425.939 394.404 436.533 394.404 449.601C394.404 462.668 404.997 473.262 418.065 473.262Z" fill="url(#paint6_linear_13_3773)"/>
<path d="M398.554 440.032C398.515 440.032 398.475 440.023 398.437 440.004C398.309 439.939 398.257 439.783 398.322 439.655C402.107 432.157 409.672 427.499 418.065 427.499C419.405 427.499 420.746 427.619 422.052 427.857C422.193 427.883 422.287 428.019 422.262 428.16C422.236 428.301 422.1 428.397 421.959 428.369C420.683 428.137 419.373 428.019 418.065 428.019C409.87 428.019 402.482 432.567 398.787 439.889C398.741 439.98 398.649 440.032 398.554 440.032Z" fill="white"/>
<path opacity="0.78" d="M418.581 470.143C429.641 470.143 438.607 461.177 438.607 450.116C438.607 439.056 429.641 430.09 418.581 430.09C407.52 430.09 398.554 439.056 398.554 450.116C398.554 461.177 407.52 470.143 418.581 470.143Z" fill="white"/>
<path d="M416.615 465.004V462.825C414.344 462.734 412.098 462.198 410.502 461.5C409.932 461.251 409.642 460.611 409.805 460.011L410.359 457.982C410.562 457.237 411.372 456.852 412.083 457.15C413.666 457.814 415.62 458.339 417.728 458.339C419.915 458.339 421.547 457.597 421.547 456.077C421.547 454.705 420.286 453.89 417.246 453.074C412.908 451.887 409.793 449.996 409.793 446.177C409.793 442.729 412.314 440.096 416.69 439.392V437.213C416.69 436.512 417.258 435.943 417.959 435.943H419.239C419.94 435.943 420.509 436.512 420.509 437.213V439.169C422.61 439.253 424.14 439.613 425.354 440.039C425.976 440.258 426.316 440.928 426.144 441.564L425.635 443.441C425.438 444.165 424.665 444.561 423.963 444.296C422.846 443.873 421.265 443.433 419.211 443.433C416.615 443.433 415.874 444.508 415.874 445.473C415.874 446.659 417.431 447.475 420.805 448.513C425.625 449.959 427.628 451.961 427.628 455.558C427.628 458.858 425.181 461.825 420.434 462.566V465.004C420.434 465.706 419.866 466.274 419.165 466.274H417.885C417.184 466.274 416.615 465.705 416.615 465.004Z" fill="url(#paint7_linear_13_3773)"/>
<path d="M573.293 478.613C590.636 478.613 604.696 464.553 604.696 447.209C604.696 429.865 590.636 415.805 573.293 415.805C555.949 415.805 541.889 429.865 541.889 447.209C541.889 464.553 555.949 478.613 573.293 478.613Z" fill="url(#paint8_linear_13_3773)"/>
<path d="M573.293 477.569C590.06 477.569 603.652 463.976 603.652 447.209C603.652 430.442 590.06 416.85 573.293 416.85C556.525 416.85 542.933 430.442 542.933 447.209C542.933 463.976 556.525 477.569 573.293 477.569Z" fill="url(#paint9_linear_13_3773)"/>
<path opacity="0.58" d="M548.258 434.932C548.208 434.932 548.156 434.92 548.108 434.896C547.943 434.813 547.877 434.612 547.96 434.447C552.816 424.827 562.523 418.85 573.292 418.85C575.011 418.85 576.733 419.005 578.408 419.31C578.59 419.343 578.71 419.517 578.677 419.699C578.644 419.88 578.469 420.003 578.289 419.967C576.652 419.669 574.971 419.518 573.292 419.518C562.777 419.518 553.299 425.354 548.557 434.748C548.498 434.865 548.38 434.932 548.258 434.932Z" fill="white"/>
<path opacity="0.78" d="M592.118 466.04C602.152 456.005 602.152 439.736 592.118 429.701C582.083 419.666 565.814 419.666 555.779 429.701C545.744 439.736 545.744 456.005 555.779 466.04C565.814 476.075 582.083 476.075 592.118 466.04Z" fill="white"/>
<path d="M571.433 466.973V464.178C568.518 464.061 565.636 463.373 563.588 462.477C562.857 462.157 562.485 461.337 562.695 460.567L563.405 457.963C563.665 457.008 564.704 456.513 565.617 456.896C567.648 457.748 570.156 458.421 572.86 458.421C575.667 458.421 577.76 457.469 577.76 455.519C577.76 453.758 576.143 452.712 572.241 451.665C566.675 450.143 562.678 447.716 562.678 442.816C562.678 438.391 565.914 435.014 571.528 434.11V431.314C571.528 430.414 572.257 429.685 573.156 429.685H574.799C575.699 429.685 576.428 430.414 576.428 431.314V433.824C579.125 433.932 581.088 434.393 582.645 434.941C583.443 435.221 583.88 436.081 583.658 436.897L583.005 439.306C582.753 440.234 581.761 440.743 580.861 440.403C579.426 439.86 577.399 439.295 574.763 439.295C571.432 439.295 570.481 440.675 570.481 441.912C570.481 443.434 572.479 444.481 576.809 445.813C582.994 447.669 585.563 450.238 585.563 454.852C585.563 459.087 582.423 462.893 576.333 463.845V466.973C576.333 467.873 575.604 468.602 574.704 468.602H573.061C572.162 468.602 571.433 467.873 571.433 466.973Z" fill="url(#paint10_linear_13_3773)"/>
<path d="M411.739 256.311C437.711 256.311 458.766 235.257 458.766 209.284C458.766 183.312 437.711 162.258 411.739 162.258C385.767 162.258 364.712 183.312 364.712 209.284C364.712 235.257 385.767 256.311 411.739 256.311Z" fill="url(#paint11_linear_13_3773)"/>
<path d="M411.739 254.747C436.848 254.747 457.202 234.393 457.202 209.284C457.202 184.176 436.848 163.821 411.739 163.821C386.63 163.821 366.276 184.176 366.276 209.284C366.276 234.393 386.63 254.747 411.739 254.747Z" fill="url(#paint12_linear_13_3773)"/>
<path opacity="0.58" d="M369.83 207.537C369.821 207.537 369.813 207.537 369.804 207.537C369.539 207.523 369.336 207.297 369.35 207.032C369.443 205.246 369.651 203.453 369.967 201.701C370.014 201.44 370.262 201.266 370.525 201.313C370.786 201.361 370.959 201.61 370.912 201.871C370.603 203.583 370.4 205.337 370.309 207.082C370.296 207.339 370.083 207.537 369.83 207.537Z" fill="white"/>
<path opacity="0.58" d="M374.25 190.879C374.177 190.879 374.103 190.862 374.034 190.827C373.797 190.707 373.702 190.419 373.822 190.182C381.09 175.782 395.619 166.836 411.739 166.836C414.309 166.836 416.886 167.068 419.396 167.526C419.657 167.573 419.83 167.823 419.782 168.084C419.735 168.345 419.486 168.52 419.224 168.47C416.77 168.023 414.252 167.797 411.739 167.797C395.984 167.797 381.784 176.54 374.679 190.615C374.595 190.782 374.426 190.879 374.25 190.879Z" fill="white"/>
<path opacity="0.78" d="M439.935 237.484C454.962 222.457 454.962 198.094 439.935 183.067C424.908 168.04 400.545 168.04 385.518 183.067C370.491 198.094 370.491 222.457 385.518 237.484C400.545 252.511 424.908 252.511 439.935 237.484Z" fill="white"/>
<path d="M424.009 195.061C424.009 201.801 418.544 209.078 411.804 209.078C405.063 209.078 399.599 201.801 399.599 195.061C399.599 188.32 405.063 183.538 411.804 183.538C418.544 183.538 424.009 188.32 424.009 195.061Z" fill="#06853A"/>
<path d="M396.657 235.03H426.451C429.588 235.03 432.364 233.003 433.32 230.016L434.924 225.005C436.098 221.336 434.189 217.364 430.571 216.041C418.446 211.607 405.908 212.176 393.065 216.45C389.466 217.647 387.47 221.496 388.463 225.156L389.697 229.706C390.55 232.849 393.402 235.03 396.657 235.03Z" fill="#0E7548"/>
<path d="M491.48 196.504C509.753 196.504 524.565 181.691 524.565 163.419C524.565 145.147 509.753 130.334 491.48 130.334C473.208 130.334 458.396 145.147 458.396 163.419C458.396 181.691 473.208 196.504 491.48 196.504Z" fill="url(#paint13_linear_13_3773)"/>
<path d="M491.48 195.404C509.145 195.404 523.465 181.084 523.465 163.419C523.465 145.755 509.145 131.435 491.48 131.435C473.816 131.435 459.496 145.755 459.496 163.419C459.496 181.084 473.816 195.404 491.48 195.404Z" fill="url(#paint14_linear_13_3773)"/>
<path opacity="0.58" d="M461.996 162.19C461.99 162.19 461.984 162.19 461.978 162.19C461.792 162.18 461.649 162.021 461.658 161.835C461.724 160.578 461.87 159.316 462.092 158.084C462.125 157.9 462.3 157.778 462.485 157.811C462.669 157.845 462.79 158.02 462.757 158.204C462.54 159.408 462.398 160.642 462.333 161.87C462.324 162.05 462.175 162.19 461.996 162.19Z" fill="white"/>
<path opacity="0.58" d="M465.106 150.47C465.055 150.47 465.003 150.459 464.954 150.434C464.787 150.35 464.721 150.147 464.805 149.98C469.918 139.849 480.14 133.556 491.48 133.556C493.289 133.556 495.101 133.719 496.867 134.041C497.051 134.074 497.173 134.25 497.139 134.434C497.106 134.618 496.931 134.74 496.746 134.705C495.02 134.391 493.249 134.232 491.481 134.232C480.397 134.232 470.406 140.383 465.408 150.285C465.349 150.402 465.23 150.47 465.106 150.47Z" fill="white"/>
<path opacity="0.78" d="M511.316 183.259C521.888 172.688 521.888 155.547 511.316 144.975C500.744 134.404 483.604 134.404 473.032 144.975C462.46 155.547 462.46 172.688 473.032 183.259C483.604 193.831 500.744 193.831 511.316 183.259Z" fill="white"/>
<path d="M499.843 153.27C499.843 158.012 495.999 163.131 491.256 163.131C486.514 163.131 482.67 158.012 482.67 153.27C482.67 148.527 486.514 145.163 491.256 145.163C495.999 145.163 499.843 148.527 499.843 153.27Z" fill="#06853A"/>
<path d="M480.87 181.532H501.831C504.038 181.532 505.991 180.106 506.664 178.005L507.792 174.479C508.617 171.898 507.275 169.103 504.729 168.173C496.199 165.054 487.378 165.454 478.342 168.461C475.811 169.303 474.406 172.011 475.105 174.585L475.973 177.787C476.573 179.998 478.58 181.532 480.87 181.532Z" fill="#006F53"/>
<path d="M354.208 154.858C372.48 154.858 387.293 140.045 387.293 121.773C387.293 103.501 372.48 88.6882 354.208 88.6882C335.936 88.6882 321.123 103.501 321.123 121.773C321.123 140.045 335.936 154.858 354.208 154.858Z" fill="url(#paint15_linear_13_3773)"/>
<path d="M354.208 153.758C371.873 153.758 386.193 139.438 386.193 121.773C386.193 104.108 371.873 89.7883 354.208 89.7883C336.543 89.7883 322.223 104.108 322.223 121.773C322.223 139.438 336.543 153.758 354.208 153.758Z" fill="url(#paint16_linear_13_3773)"/>
<path opacity="0.58" d="M324.724 120.544C324.718 120.544 324.711 120.544 324.706 120.544C324.519 120.534 324.376 120.375 324.386 120.189C324.452 118.932 324.598 117.67 324.82 116.438C324.853 116.254 325.027 116.132 325.213 116.165C325.396 116.198 325.518 116.374 325.485 116.558C325.268 117.762 325.125 118.996 325.061 120.224C325.051 120.404 324.902 120.544 324.724 120.544Z" fill="white"/>
<path opacity="0.58" d="M327.833 108.824C327.782 108.824 327.73 108.813 327.682 108.788C327.515 108.704 327.448 108.501 327.532 108.334C332.646 98.2032 342.867 91.9097 354.208 91.9097C356.017 91.9097 357.829 92.0727 359.595 92.3948C359.779 92.4282 359.9 92.6041 359.867 92.7878C359.834 92.9716 359.658 93.0944 359.474 93.0594C357.748 92.7449 355.976 92.5856 354.208 92.5856C343.124 92.5856 333.134 98.737 328.135 108.639C328.076 108.756 327.957 108.824 327.833 108.824Z" fill="white"/>
<path opacity="0.78" d="M374.045 141.613C384.616 131.041 384.616 113.901 374.045 103.329C363.473 92.7569 346.333 92.7569 335.761 103.329C325.189 113.901 325.189 131.041 335.761 141.613C346.333 152.184 363.473 152.184 374.045 141.613Z" fill="white"/>
<path d="M362.84 111.767C362.84 116.509 358.996 121.629 354.254 121.629C349.511 121.629 345.667 116.509 345.667 111.767C345.667 107.025 349.511 103.66 354.254 103.66C358.996 103.66 362.84 107.025 362.84 111.767Z" fill="#006F53"/>
<path d="M343.598 139.886H364.559C366.765 139.886 368.719 138.46 369.391 136.358L370.519 132.833C371.345 130.252 370.002 127.457 367.457 126.527C358.926 123.408 350.106 123.808 341.07 126.814C338.539 127.657 337.134 130.364 337.832 132.939L338.701 136.141C339.301 138.351 341.307 139.886 343.598 139.886Z" fill="#006F53"/>
<path d="M480.39 380.901C438.441 380.901 396.492 380.901 354.543 380.901C329.907 330.786 305.27 279.659 280.634 229.038C371.856 229.038 463.078 229.038 554.3 229.038C529.663 279.659 505.027 330.786 480.39 380.901Z" fill="url(#paint17_linear_13_3773)"/>
<path d="M563.158 230.921C563.158 232.677 561.735 234.1 559.979 234.1H275.268C273.512 234.1 272.089 232.677 272.089 230.921V226.143C272.089 224.387 273.512 222.964 275.268 222.964H559.979C561.735 222.964 563.158 224.387 563.158 226.143V230.921Z" fill="url(#paint18_linear_13_3773)"/>
<path d="M471.354 440.127C435.429 440.127 399.504 440.127 363.58 440.127C360.456 421.398 357.332 400.643 354.208 380.901C396.381 380.901 438.553 380.901 480.725 380.901C477.601 400.643 474.478 421.398 471.354 440.127Z" fill="url(#paint19_linear_13_3773)"/>
<path d="M474.572 440.62C474.572 442.804 473.224 444.177 471.637 444.177H362.471C360.883 444.177 359.663 442.804 359.663 440.62V438.188C359.663 436.004 360.883 434.053 362.471 434.053H471.637C473.224 434.053 474.572 436.004 474.572 438.188V440.62Z" fill="url(#paint20_linear_13_3773)"/>
<path d="M266.86 324.473C266.86 324.473 294.788 343.576 300.821 334.392C306.855 325.209 276.306 297.583 276.306 297.583L266.86 324.473Z" fill="#FFE0B5"/>
<path d="M260.62 504.565C260.622 504.426 260.612 504.284 260.577 504.142C258.468 495.782 248.002 490.575 248.002 490.575L243.854 490.9C241.47 498.268 241.776 502.788 242.159 504.8C242.17 504.857 242.187 504.91 242.202 504.965C245.623 505.271 252.665 505.47 260.62 504.565Z" fill="#005E53"/>
<path d="M242.187 484.722L243.943 493.178C244.072 493.798 244.548 494.262 245.125 494.316C245.831 494.382 246.836 494.421 247.846 494.273C248.752 494.14 249.383 493.219 249.223 492.231L248.002 484.722H242.187Z" fill="url(#paint21_linear_13_3773)"/>
<path d="M297.358 504.196C297.327 504.132 297.301 504.067 297.258 504.007C295.037 500.903 289.38 494.723 278.202 492.043L272.84 491.874C272.84 491.874 270.452 496.024 270.407 503.712C271.632 504.212 274.001 504.752 278.581 504.88C285.662 505.078 294.06 504.469 297.358 504.196Z" fill="#006F53"/>
<path d="M271.845 483.747C271.905 484.147 272.64 490.222 272.924 492.577C272.992 493.137 273.397 493.57 273.909 493.631C274.822 493.74 276.299 493.84 277.592 493.575C278.289 493.432 278.794 492.762 278.794 491.983V482.447L271.845 483.747Z" fill="url(#paint22_linear_13_3773)"/>
<path d="M266.502 373.097C266.502 373.097 279.436 422.25 279.202 484.104C279.198 485.232 278.406 486.205 277.303 486.437C275.677 486.78 273.286 487.187 271.307 487.131C270.251 487.102 269.368 486.318 269.19 485.276C267.376 474.641 256.969 414.728 251.039 405.001C251.039 405.001 247.138 458.363 248.385 486.047C248.416 486.735 247.912 487.332 247.227 487.411C246.189 487.531 244.528 487.622 242.414 487.398C241.612 487.313 240.964 486.706 240.85 485.907C239.558 476.907 232.123 423.33 232.439 384.736C232.457 382.56 238.195 373.097 238.195 373.097H266.502Z" fill="#0E7548"/>
<path d="M276.451 297.543C258.652 294.969 239.099 297.331 229.61 298.527C226.537 298.914 223.727 300.429 221.702 302.772C213.672 312.065 196.052 337.506 216.792 363.142C219.446 361.669 223.217 359.307 225.779 356.573C223.484 350.104 223.296 341.839 228.105 331.702C228.269 332.506 228.473 333.301 228.72 334.084C235.347 355.081 235.701 372.554 235.686 376.581C235.684 377.128 236.012 377.621 236.52 377.824C245.243 381.32 262.034 379.239 267.671 378.399C268.704 378.245 269.4 377.283 269.257 376.248C267.274 361.883 274.006 340.877 279.359 327.089C281.475 321.64 277.559 299.071 276.451 297.543Z" fill="#FFE0B5"/>
<path d="M247.197 277.294L244.74 297.609C244.628 298.53 245.195 299.402 246.086 299.662C248.753 300.442 254.464 301.623 259.682 299.476C260.672 299.068 261.219 297.997 260.991 296.951L257.885 282.653L247.197 277.294Z" fill="url(#paint23_linear_13_3773)"/>
<path d="M256.019 261.763C256.264 261.969 266.902 280.209 266.902 280.209L256.358 286.062L243.706 270.272C243.706 270.272 251.923 258.326 256.019 261.763Z" fill="url(#paint24_linear_13_3773)"/>
<path d="M247.489 270.67C247.324 271.181 247.404 271.737 247.706 272.182L253.628 280.888C253.718 281.02 253.822 281.138 253.945 281.24C254.623 281.803 256.925 283.42 258.493 280.95C259.829 278.845 261.085 276.928 262.501 276.087C263.328 275.595 264.397 275.889 264.878 276.722C265.87 278.437 267.801 281.938 269.08 285.29C269.401 286.13 269.011 287.074 268.199 287.458C266.054 288.473 261.806 290.329 257.986 291.08C257.359 291.204 256.717 290.972 256.311 290.478C254.525 288.303 249.494 282.227 247.81 280.731C246.245 279.34 243.545 280.052 242.333 280.476C241.874 280.637 241.372 280.601 240.941 280.374C239.649 279.693 237.362 277.943 239.176 274.657C239.627 273.84 239.314 272.803 238.506 272.336C237.059 271.498 235.448 269.862 236.73 266.991C238.029 264.085 240.621 263.683 242.409 263.798C243.2 263.849 243.974 263.392 244.233 262.643C244.349 262.31 244.598 262.017 245.086 261.889C246.005 261.647 246.568 260.762 246.332 259.84C245.928 258.261 246.045 256.172 248.516 254.624C253.048 251.785 257.385 255.742 258.628 259.221C259.872 262.699 254.784 265.498 251.518 266.103C249.118 266.547 247.944 269.261 247.489 270.67Z" fill="#006F53"/>
<path d="M251.07 283.709C251.07 283.709 248.643 277.74 245.993 278.116C243.343 278.491 241.398 281.263 244.868 284.057C249.185 287.533 251.07 283.709 251.07 283.709Z" fill="url(#paint25_linear_13_3773)"/>
<path d="M227.225 330.132C223.709 320.51 224.985 308.892 224.998 308.776L225.967 308.886C225.954 309.001 224.706 320.396 228.142 329.797L227.225 330.132Z" fill="#AFD445"/>
<path d="M251.605 403.532C251.388 403.532 251.19 403.387 251.133 403.167C250.061 399.03 242.029 394.484 241.948 394.439C241.713 394.307 241.629 394.01 241.761 393.775C241.893 393.54 242.189 393.456 242.425 393.588C242.771 393.782 250.901 398.384 252.077 402.922C252.145 403.183 251.988 403.449 251.727 403.517C251.687 403.528 251.645 403.532 251.605 403.532Z" fill="#489467"/>
<path d="M225.779 356.572C223.217 359.306 219.446 361.669 216.792 363.142C220.755 368.041 226.118 372.947 233.218 377.749L234.077 379.676C234.812 381.327 236.42 382.422 238.226 382.509C248.149 382.981 250.895 380.877 241.76 374.506C241.76 374.506 230.078 368.693 225.779 356.572Z" fill="url(#paint26_linear_13_3773)"/>
<path d="M308.77 309.154C308.77 309.154 294.726 320.51 291.268 324.835C287.81 329.16 289.935 338.093 296.703 336.931C303.472 335.768 313.874 314.312 313.874 314.312L308.77 309.154Z" fill="url(#paint27_linear_13_3773)"/>
<path d="M286.12 294.286C286.12 294.286 309.356 316.638 315.305 320.76C322.21 325.545 331.289 316.112 328.13 310.866C324.972 305.621 301.264 288.985 301.264 288.985L286.12 294.286Z" fill="#006F53"/>
<path d="M291.719 267.61L345.385 214.934L373.246 275.5L301.055 291.857L291.719 267.61Z" fill="url(#paint28_linear_13_3773)"/>
<path d="M366.104 242.216C374.203 259.315 377.945 274.515 374.461 276.165C370.977 277.815 361.586 265.291 353.487 248.192C345.388 231.092 341.647 215.893 345.131 214.243C348.615 212.592 358.005 225.116 366.104 242.216Z" fill="url(#paint29_linear_13_3773)"/>
<path d="M373.937 273.821C373.092 273.511 370.79 271.862 366.985 266.582C363.308 261.479 359.307 254.497 355.719 246.921C352.13 239.345 349.263 231.825 347.644 225.748C345.969 219.458 346.152 216.633 346.447 215.783C347.292 216.093 349.594 217.742 353.398 223.022C357.076 228.125 361.077 235.107 364.665 242.683C368.253 250.259 371.121 257.778 372.74 263.856C374.415 270.145 374.232 272.971 373.937 273.821Z" fill="#006F53"/>
<mask id="mask0_13_3773" style="mask-type:luminance" maskUnits="userSpaceOnUse" x="346" y="215" width="29" height="59">
<path d="M374.146 273.68C373.301 273.37 371 271.721 367.195 266.441C363.518 261.338 359.517 254.356 355.929 246.78C352.34 239.204 349.473 231.684 347.854 225.607C346.179 219.318 346.361 216.492 346.657 215.642C347.502 215.952 349.803 217.601 353.608 222.881C357.285 227.984 368.841 231.388 372.429 238.964C376.017 246.54 371.331 257.638 372.949 263.715C374.624 270.004 374.442 272.83 374.146 273.68Z" fill="white"/>
</mask>
<g mask="url(#mask0_13_3773)">
<path d="M368.168 240.742C370.66 246.003 369.846 251.609 364.237 254.266C358.628 256.923 352.061 254.812 349.57 249.551C347.078 244.291 349.605 237.872 355.214 235.216C360.823 232.559 365.677 235.481 368.168 240.742Z" fill="url(#paint30_linear_13_3773)"/>
</g>
<path d="M279.709 271.437C282.563 269.655 286.835 267.478 292.026 266.332C294.3 275.123 298.513 283.413 304.417 291.267L291.208 297.523C289.102 298.521 286.582 297.842 285.268 295.917C282.635 292.059 278.51 285.432 276.702 279.397C275.795 276.368 277.026 273.111 279.709 271.437Z" fill="#005E53"/>
<path d="M291.673 273.792L281.382 278.667C280.981 278.856 280.51 278.812 280.152 278.551C279.794 278.29 279.608 277.855 279.667 277.415C279.7 277.163 279.933 276.985 280.186 277.018C280.44 277.052 280.617 277.284 280.584 277.538C280.564 277.688 280.657 277.774 280.697 277.803C280.738 277.833 280.848 277.896 280.985 277.831L291.277 272.956C291.418 272.889 291.478 272.72 291.412 272.579L291.065 271.847C290.998 271.706 290.829 271.645 290.687 271.712L280.32 276.623C280.089 276.732 279.813 276.633 279.704 276.403C279.595 276.172 279.693 275.896 279.924 275.786L290.291 270.876C290.894 270.591 291.616 270.848 291.901 271.451L292.248 272.183C292.533 272.785 292.275 273.507 291.673 273.792Z" fill="#91B3FA"/>
<path d="M292.914 278.785L282.623 283.659C282.223 283.849 281.751 283.805 281.394 283.543C281.036 283.282 280.85 282.847 280.908 282.408C280.941 282.155 281.174 281.977 281.427 282.01C281.681 282.044 281.859 282.277 281.825 282.53C281.805 282.68 281.898 282.766 281.939 282.796C281.98 282.826 282.089 282.888 282.227 282.823L292.518 277.948C292.659 277.881 292.72 277.712 292.653 277.571L292.306 276.839C292.239 276.698 292.07 276.637 291.929 276.704L281.561 281.615C281.33 281.724 281.054 281.626 280.945 281.395C280.836 281.164 280.934 280.888 281.165 280.779L291.533 275.868C292.135 275.583 292.857 275.841 293.142 276.443L293.489 277.175C293.774 277.777 293.516 278.499 292.914 278.785Z" fill="#91B3FA"/>
<path opacity="0.58" d="M300.35 261.714C300.172 261.798 299.954 261.762 299.813 261.611C299.639 261.424 299.649 261.132 299.836 260.957L341.138 222.447C341.325 222.272 341.618 222.283 341.792 222.47C341.966 222.657 341.956 222.949 341.769 223.124L300.467 261.634C300.431 261.668 300.391 261.694 300.35 261.714Z" fill="white"/>
<path opacity="0.58" d="M295.046 267.517C294.881 267.595 294.679 267.572 294.536 267.441C294.347 267.269 294.334 266.976 294.507 266.787L296.525 264.579C296.697 264.39 296.99 264.377 297.178 264.549C297.367 264.722 297.38 265.014 297.208 265.203L295.19 267.411C295.148 267.457 295.099 267.492 295.046 267.517Z" fill="white"/>
<path d="M296.36 283.688L286.069 288.563C285.669 288.752 285.198 288.708 284.84 288.447C284.482 288.186 284.296 287.751 284.354 287.312C284.387 287.058 284.62 286.88 284.873 286.914C285.127 286.947 285.305 287.18 285.271 287.433C285.251 287.584 285.344 287.67 285.385 287.699C285.426 287.729 285.536 287.791 285.673 287.727L295.964 282.852C296.105 282.785 296.166 282.616 296.099 282.475L295.752 281.743C295.685 281.602 295.516 281.541 295.375 281.608L285.007 286.519C284.776 286.628 284.5 286.529 284.391 286.299C284.282 286.068 284.38 285.792 284.611 285.683L294.979 280.772C295.581 280.487 296.303 280.745 296.588 281.347L296.935 282.079C297.22 282.681 296.963 283.403 296.36 283.688Z" fill="#91B3FA"/>
<path d="M300.13 289.157L289.839 294.031C289.438 294.221 288.967 294.176 288.61 293.915C288.252 293.654 288.065 293.219 288.124 292.78C288.157 292.527 288.39 292.349 288.643 292.383C288.896 292.416 289.074 292.649 289.041 292.902C289.021 293.053 289.114 293.138 289.155 293.168C289.196 293.198 289.306 293.26 289.443 293.195L299.734 288.321C299.875 288.254 299.936 288.085 299.869 287.944L299.522 287.211C299.455 287.07 299.286 287.01 299.145 287.077L288.777 291.987C288.546 292.097 288.27 291.998 288.161 291.767C288.052 291.537 288.15 291.261 288.381 291.151L298.749 286.24C299.351 285.955 300.073 286.213 300.358 286.815L300.705 287.548C300.99 288.15 300.732 288.872 300.13 289.157Z" fill="#91B3FA"/>
<path d="M324.581 317.017C324.096 317.247 323.58 317.427 323.041 317.552C320.679 318.099 318.268 317.513 316.426 315.944L299.551 301.572C299.357 301.406 299.333 301.115 299.499 300.92C299.664 300.726 299.957 300.702 300.151 300.868L317.026 315.24C318.643 316.617 320.759 317.131 322.832 316.651C324.867 316.178 326.509 314.817 327.335 312.914C327.38 312.81 327.424 312.705 327.468 312.598C327.565 312.361 327.834 312.248 328.071 312.344C328.308 312.441 328.422 312.711 328.325 312.947C328.278 313.062 328.231 313.173 328.183 313.283C327.459 314.952 326.185 316.257 324.581 317.017Z" fill="#91B3FA"/>
<path d="M297.555 299.513C297.395 299.588 297.199 299.569 297.056 299.447L295.174 297.843C294.979 297.678 294.956 297.386 295.122 297.191C295.287 296.997 295.58 296.973 295.774 297.139L297.656 298.743C297.851 298.908 297.874 299.2 297.708 299.395C297.665 299.446 297.612 299.486 297.555 299.513Z" fill="#91B3FA"/>
<path d="M366.607 241.333C366.39 241.436 366.127 241.355 366.007 241.142C364.629 238.698 362.865 237.227 360.764 236.772C357.123 235.983 353.615 238.505 353.58 238.531C353.373 238.682 353.084 238.637 352.933 238.431C352.783 238.225 352.827 237.936 353.033 237.785C353.189 237.671 356.901 234.992 360.953 235.866C363.327 236.378 365.298 238.001 366.812 240.688C366.938 240.91 366.859 241.192 366.637 241.318C366.627 241.323 366.617 241.328 366.607 241.333Z" fill="#91B3FA"/>
<path d="M314.067 300.194C314.067 300.194 317.634 297.166 320.422 300.194C323.209 303.222 323.761 308.507 323.194 308.765C322.626 309.023 305.389 304.743 314.067 300.194Z" fill="url(#paint31_linear_13_3773)"/>
<path d="M490.488 504.931C511.819 504.931 529.111 487.639 529.111 466.308C529.111 444.977 511.819 427.684 490.488 427.684C469.157 427.684 451.865 444.977 451.865 466.308C451.865 487.639 469.157 504.931 490.488 504.931Z" fill="url(#paint32_linear_13_3773)"/>
<path d="M490.488 503.647C511.11 503.647 527.827 486.929 527.827 466.308C527.827 445.686 511.11 428.969 490.488 428.969C469.866 428.969 453.149 445.686 453.149 466.308C453.149 486.929 469.866 503.647 490.488 503.647Z" fill="url(#paint33_linear_13_3773)"/>
<path opacity="0.58" d="M459.698 451.208C459.636 451.208 459.573 451.193 459.513 451.163C459.311 451.061 459.229 450.814 459.332 450.612C465.304 438.779 477.243 431.429 490.488 431.429C492.602 431.429 494.719 431.619 496.78 431.995C497.003 432.035 497.151 432.249 497.11 432.473C497.07 432.696 496.855 432.847 496.632 432.803C494.62 432.436 492.553 432.25 490.488 432.25C477.555 432.25 465.897 439.428 460.065 450.981C459.993 451.125 459.848 451.208 459.698 451.208Z" fill="white"/>
<path opacity="0.78" d="M513.642 489.467C525.984 477.125 525.984 457.116 513.642 444.774C501.301 432.433 481.291 432.433 468.95 444.774C456.608 457.116 456.608 477.125 468.95 489.467C481.291 501.809 501.301 501.809 513.642 489.467Z" fill="white"/>
<path d="M488.2 490.615V487.177C484.616 487.033 481.071 486.187 478.553 485.085C477.654 484.692 477.195 483.682 477.453 482.735L478.327 479.533C478.647 478.358 479.925 477.75 481.048 478.221C483.546 479.268 486.63 480.097 489.956 480.097C493.408 480.097 495.982 478.926 495.982 476.527C495.982 474.362 493.993 473.075 489.195 471.788C482.349 469.916 477.434 466.931 477.434 460.904C477.434 455.462 481.413 451.308 488.317 450.197V446.758C488.317 445.652 489.214 444.755 490.321 444.755H492.341C493.447 444.755 494.344 445.652 494.344 446.758V449.845C497.661 449.978 500.075 450.545 501.991 451.218C502.972 451.563 503.509 452.621 503.237 453.625L502.433 456.587C502.123 457.729 500.903 458.354 499.796 457.936C498.032 457.269 495.538 456.574 492.296 456.574C488.2 456.574 487.03 458.271 487.03 459.792C487.03 461.665 489.487 462.952 494.812 464.591C502.419 466.873 505.579 470.032 505.579 475.708C505.579 480.916 501.717 485.597 494.227 486.767V490.615C494.227 491.721 493.33 492.618 492.224 492.618H490.204C489.097 492.618 488.2 491.722 488.2 490.615Z" fill="url(#paint34_linear_13_3773)"/>
<path d="M414.951 357.627C414.784 357.627 414.617 357.573 414.477 357.461C413.942 357.035 413.412 356.581 412.9 356.115C412.59 355.832 412.568 355.352 412.851 355.042C413.134 354.732 413.615 354.711 413.924 354.993C414.411 355.438 414.916 355.868 415.425 356.275C415.752 356.536 415.806 357.014 415.544 357.342C415.394 357.53 415.173 357.627 414.951 357.627Z" fill="#AFD445"/>
<path d="M408.918 351.202C408.679 351.202 408.444 351.09 408.296 350.879C407.859 350.256 407.439 349.612 407.049 348.962C406.703 348.388 406.373 347.798 406.067 347.21C405.873 346.837 406.018 346.379 406.39 346.185C406.763 345.994 407.221 346.137 407.414 346.509C407.706 347.07 408.021 347.632 408.35 348.179C408.722 348.799 409.122 349.413 409.539 350.006C409.78 350.349 409.697 350.823 409.354 351.064C409.221 351.158 409.069 351.202 408.918 351.202ZM404.273 341.276C403.937 341.276 403.631 341.052 403.54 340.713C403.171 339.335 402.893 337.917 402.713 336.498C402.66 336.082 402.955 335.702 403.371 335.649C403.786 335.601 404.167 335.891 404.22 336.307C404.391 337.658 404.656 339.009 405.007 340.321C405.115 340.726 404.874 341.142 404.469 341.25C404.404 341.268 404.337 341.276 404.273 341.276ZM403.354 330.357C403.33 330.357 403.307 330.356 403.283 330.354C402.866 330.315 402.558 329.946 402.597 329.528C402.728 328.108 402.957 326.682 403.278 325.288C403.371 324.88 403.779 324.623 404.188 324.718C404.596 324.812 404.852 325.22 404.758 325.629C404.453 326.956 404.235 328.315 404.109 329.668C404.073 330.062 403.742 330.357 403.354 330.357ZM406.252 319.791C406.142 319.791 406.032 319.768 405.926 319.718C405.548 319.538 405.386 319.086 405.566 318.706C406.179 317.415 406.885 316.154 407.663 314.959C407.893 314.608 408.364 314.509 408.714 314.738C409.065 314.967 409.165 315.437 408.936 315.789C408.194 316.927 407.522 318.128 406.938 319.358C406.808 319.631 406.536 319.791 406.252 319.791ZM412.615 310.876C412.417 310.876 412.22 310.8 412.071 310.647C411.778 310.347 411.784 309.867 412.084 309.574C413.105 308.577 414.204 307.64 415.352 306.787C415.688 306.538 416.164 306.606 416.414 306.944C416.664 307.28 416.594 307.756 416.258 308.006C415.164 308.818 414.117 309.712 413.145 310.66C412.997 310.805 412.806 310.876 412.615 310.876ZM421.672 304.708C421.382 304.708 421.105 304.542 420.979 304.261C420.806 303.878 420.977 303.429 421.359 303.257C422.664 302.668 424.019 302.165 425.384 301.76C425.786 301.644 426.209 301.871 426.329 302.272C426.448 302.675 426.218 303.097 425.816 303.216C424.515 303.602 423.226 304.081 421.983 304.641C421.882 304.687 421.776 304.708 421.672 304.708Z" fill="#AFD445"/>
<path d="M432.323 302.036C431.927 302.036 431.594 301.73 431.567 301.329C431.538 300.91 431.854 300.548 432.272 300.52C432.957 300.473 433.655 300.448 434.344 300.446C434.345 300.446 434.346 300.446 434.347 300.446C434.765 300.446 435.105 300.785 435.106 301.203C435.107 301.623 434.768 301.964 434.349 301.965C433.692 301.967 433.028 301.99 432.375 302.034C432.358 302.036 432.341 302.036 432.323 302.036Z" fill="#AFD445"/>
<path d="M457.408 311.985C457.204 311.985 457 311.903 456.85 311.741C456.407 311.262 455.941 310.788 455.464 310.335C455.16 310.045 455.148 309.565 455.437 309.261C455.726 308.957 456.206 308.944 456.511 309.234C457.011 309.71 457.501 310.207 457.966 310.711C458.25 311.019 458.231 311.499 457.923 311.784C457.777 311.919 457.592 311.985 457.408 311.985Z" fill="#AFD445"/>
<path d="M441.834 363.594C441.492 363.594 441.181 363.362 441.097 363.014C440.998 362.606 441.249 362.196 441.656 362.097C442.954 361.783 444.245 361.377 445.494 360.891C445.884 360.739 446.325 360.932 446.477 361.323C446.629 361.714 446.436 362.154 446.045 362.306C444.733 362.816 443.377 363.242 442.014 363.573C441.954 363.588 441.894 363.594 441.834 363.594ZM451.714 359.279C451.468 359.279 451.227 359.16 451.08 358.939C450.849 358.589 450.946 358.118 451.295 357.886C452.415 357.147 453.493 356.329 454.5 355.454C454.817 355.177 455.297 355.212 455.571 355.528C455.846 355.845 455.813 356.325 455.496 356.599C454.439 357.518 453.307 358.378 452.133 359.154C452.004 359.239 451.858 359.279 451.714 359.279ZM459.547 351.877C459.389 351.877 459.231 351.828 459.095 351.727C458.758 351.477 458.688 351.002 458.938 350.665C459.736 349.591 460.47 348.454 461.119 347.284C461.323 346.917 461.785 346.786 462.152 346.989C462.518 347.193 462.651 347.655 462.447 348.021C461.765 349.249 460.995 350.443 460.157 351.57C460.009 351.771 459.779 351.877 459.547 351.877ZM464.389 342.247C464.316 342.247 464.242 342.236 464.169 342.215C463.768 342.093 463.54 341.67 463.661 341.268C464.047 339.988 464.352 338.669 464.568 337.348C464.636 336.934 465.023 336.654 465.44 336.72C465.853 336.788 466.134 337.178 466.067 337.592C465.841 338.979 465.521 340.363 465.116 341.706C465.016 342.035 464.715 342.247 464.389 342.247ZM465.683 331.546C465.281 331.546 464.946 331.232 464.925 330.827C464.854 329.491 464.693 328.147 464.447 326.832C464.37 326.419 464.641 326.023 465.053 325.945C465.464 325.869 465.862 326.139 465.94 326.552C466.198 327.932 466.368 329.344 466.442 330.747C466.464 331.165 466.142 331.523 465.723 331.545C465.709 331.546 465.696 331.546 465.683 331.546ZM463.257 321.044C462.961 321.044 462.68 320.87 462.557 320.581C462.036 319.353 461.426 318.144 460.745 316.987C460.532 316.626 460.652 316.16 461.013 315.948C461.375 315.734 461.84 315.855 462.052 316.216C462.768 317.43 463.408 318.699 463.955 319.988C464.119 320.374 463.939 320.819 463.553 320.984C463.456 321.025 463.356 321.044 463.257 321.044Z" fill="#AFD445"/>
<path d="M434.51 364.47C434.045 364.47 433.579 364.46 433.118 364.44C432.7 364.422 432.375 364.067 432.393 363.648C432.411 363.23 432.747 362.898 433.185 362.922C433.837 362.95 434.502 362.959 435.159 362.944C435.165 362.944 435.17 362.944 435.175 362.944C435.587 362.944 435.925 363.273 435.934 363.687C435.943 364.107 435.61 364.454 435.191 364.462C434.965 364.467 434.737 364.47 434.51 364.47Z" fill="#AFD445"/>
<path d="M430.442 356.122C430.596 356.166 430.761 356.107 430.852 355.976L433.458 352.228C435.588 352.325 437.748 352.083 439.857 351.477L443.259 354.515C443.379 354.622 443.552 354.641 443.692 354.563L448.471 351.891C448.611 351.813 448.685 351.654 448.657 351.497L447.85 347.007C449.47 345.528 450.808 343.814 451.84 341.949L456.398 341.691C456.557 341.682 456.694 341.573 456.737 341.419L458.227 336.15C458.271 335.996 458.212 335.832 458.08 335.74L454.332 333.134C454.429 331.005 454.187 328.844 453.582 326.736L456.62 323.333C456.726 323.214 456.746 323.04 456.667 322.9L453.995 318.121C453.917 317.982 453.759 317.907 453.602 317.935L449.112 318.742C447.632 317.122 445.919 315.785 444.054 314.752L443.796 310.195C443.787 310.035 443.677 309.899 443.523 309.855L438.255 308.366C438.101 308.322 437.936 308.381 437.845 308.513L435.239 312.26C433.109 312.163 430.949 312.405 428.84 313.011L425.438 309.973C425.318 309.866 425.144 309.847 425.005 309.925L420.226 312.598C420.086 312.676 420.011 312.834 420.04 312.991L420.847 317.481C419.227 318.96 417.889 320.674 416.857 322.539L412.3 322.797C412.14 322.806 412.003 322.915 411.96 323.069L410.47 328.338C410.427 328.492 410.486 328.657 410.617 328.748L414.365 331.354C414.268 333.484 414.51 335.644 415.116 337.753L412.077 341.155C411.971 341.275 411.952 341.448 412.03 341.588L414.702 346.367C414.78 346.507 414.938 346.581 415.096 346.553L419.586 345.746C421.065 347.366 422.779 348.704 424.644 349.736L424.901 354.294C424.91 354.453 425.02 354.59 425.174 354.633L430.442 356.122Z" fill="#0E7548"/>
<path d="M434.353 338.118C434.296 338.118 434.239 338.118 434.183 338.116C432.614 338.072 431.157 337.419 430.079 336.279C429.002 335.138 428.433 333.646 428.477 332.078C428.521 330.51 429.174 329.052 430.314 327.975C432.668 325.75 436.393 325.856 438.618 328.209C439.696 329.35 440.265 330.842 440.221 332.41C440.176 333.979 439.524 335.436 438.383 336.514C437.284 337.552 435.859 338.118 434.353 338.118ZM434.348 328.396C433.398 328.396 432.448 328.744 431.705 329.447C430.958 330.152 430.53 331.108 430.501 332.135C430.472 333.164 430.845 334.141 431.551 334.888C432.257 335.635 433.212 336.063 434.24 336.092C435.274 336.127 436.245 335.749 436.992 335.042L436.993 335.041C437.74 334.335 438.167 333.38 438.196 332.353C438.226 331.325 437.853 330.347 437.146 329.6C436.39 328.8 435.37 328.396 434.348 328.396Z" fill="#AFD445"/>
<path d="M438.232 345.274C438.016 345.274 437.815 345.134 437.749 344.916C437.734 344.867 437.726 344.817 437.726 344.768C437.726 344.551 437.866 344.351 438.084 344.284C438.942 344.021 439.779 343.663 440.572 343.22C440.608 343.199 440.644 343.179 440.68 343.159C443.441 341.58 445.473 339.079 446.451 336.067C446.473 335.999 446.495 335.931 446.516 335.863C446.544 335.771 446.571 335.679 446.598 335.587C446.922 334.438 447.083 333.27 447.082 332.109C447.082 329.967 446.535 327.85 445.461 325.929C442.041 319.814 434.286 317.622 428.17 321.04C424.013 323.365 421.668 327.695 421.668 332.151C421.668 334.249 422.187 336.374 423.281 338.331C424.406 340.342 426.05 342.007 428.037 343.146C428.2 343.24 428.291 343.41 428.291 343.586C428.291 343.671 428.27 343.758 428.224 343.837C428.085 344.08 427.775 344.163 427.533 344.024C425.387 342.794 423.611 340.996 422.398 338.825C421.216 336.712 420.655 334.417 420.655 332.152C420.656 327.341 423.187 322.666 427.676 320.156C434.278 316.466 442.653 318.833 446.344 325.435C447.504 327.509 448.095 329.794 448.095 332.107C448.095 333.361 447.922 334.622 447.571 335.862C446.574 339.388 444.264 342.315 441.066 344.103C441.024 344.126 440.982 344.15 440.94 344.172C440.122 344.619 439.262 344.982 438.381 345.252C438.331 345.267 438.282 345.274 438.232 345.274Z" fill="#AFD445"/>
<path d="M369.161 312.547C368.924 312.547 368.691 312.437 368.543 312.23C368.137 311.662 367.755 311.071 367.405 310.472C367.193 310.11 367.315 309.645 367.677 309.434C368.04 309.221 368.505 309.344 368.716 309.706C369.043 310.265 369.4 310.817 369.778 311.347C370.022 311.688 369.943 312.162 369.602 312.406C369.468 312.501 369.314 312.547 369.161 312.547Z" fill="#AFD445"/>
<path d="M365.583 304.568C365.237 304.568 364.924 304.33 364.843 303.977C364.523 302.574 364.335 301.138 364.283 299.708C364.267 299.289 364.595 298.937 365.014 298.922C365.415 298.89 365.785 299.233 365.8 299.653C365.849 300.988 366.025 302.329 366.324 303.64C366.417 304.049 366.162 304.456 365.753 304.549C365.696 304.562 365.639 304.568 365.583 304.568ZM365.832 293.739C365.765 293.739 365.696 293.73 365.628 293.711C365.224 293.599 364.988 293.18 365.1 292.776C365.483 291.397 366 290.044 366.635 288.754C366.821 288.378 367.277 288.224 367.652 288.409C368.028 288.594 368.183 289.049 367.997 289.426C367.404 290.63 366.921 291.894 366.563 293.183C366.47 293.519 366.165 293.739 365.832 293.739ZM371.183 284.319C370.995 284.319 370.806 284.25 370.659 284.109C370.356 283.819 370.344 283.339 370.634 283.035C371.626 281.997 372.72 281.049 373.886 280.217C374.227 279.973 374.702 280.052 374.945 280.394C375.189 280.735 375.11 281.209 374.768 281.453C373.679 282.23 372.658 283.115 371.733 284.084C371.583 284.241 371.383 284.319 371.183 284.319ZM380.356 278.563C380.036 278.563 379.737 278.359 379.634 278.037C379.504 277.639 379.723 277.21 380.122 277.081C380.471 276.968 380.823 276.862 381.18 276.766C382.21 276.485 383.267 276.275 384.322 276.139C384.741 276.084 385.118 276.38 385.171 276.795C385.225 277.212 384.931 277.592 384.515 277.645C383.53 277.772 382.541 277.969 381.579 278.231C381.245 278.322 380.916 278.42 380.59 278.526C380.512 278.551 380.433 278.563 380.356 278.563Z" fill="#AFD445"/>
<path d="M393.16 278.289C393.092 278.289 393.023 278.28 392.955 278.261C392.335 278.087 391.694 277.939 391.051 277.821C390.638 277.746 390.365 277.35 390.441 276.937C390.517 276.525 390.911 276.251 391.325 276.327C392.014 276.454 392.7 276.612 393.364 276.798C393.768 276.912 394.004 277.33 393.89 277.734C393.797 278.07 393.492 278.289 393.16 278.289Z" fill="#AFD445"/>
<path d="M407.23 290.115C406.946 290.115 406.674 289.956 406.544 289.682C406.264 289.095 405.955 288.514 405.625 287.956C405.411 287.596 405.53 287.13 405.891 286.916C406.25 286.702 406.717 286.821 406.931 287.182C407.285 287.78 407.617 288.402 407.915 289.03C408.095 289.409 407.934 289.862 407.555 290.042C407.45 290.092 407.339 290.115 407.23 290.115Z" fill="#AFD445"/>
<path d="M388.853 321.769C388.46 321.769 388.127 321.466 388.097 321.067C388.065 320.649 388.379 320.284 388.797 320.253C390.104 320.154 391.416 319.932 392.695 319.592C393.103 319.486 393.517 319.726 393.624 320.132C393.732 320.537 393.49 320.953 393.085 321.06C391.716 321.423 390.312 321.661 388.912 321.767C388.892 321.769 388.873 321.769 388.853 321.769ZM398.98 318.45C398.727 318.45 398.48 318.324 398.336 318.093C398.113 317.738 398.221 317.269 398.577 317.047C399.691 316.349 400.748 315.542 401.717 314.648C402.026 314.364 402.505 314.383 402.79 314.69C403.074 314.999 403.055 315.479 402.747 315.764C401.709 316.722 400.577 317.586 399.382 318.334C399.257 318.413 399.118 318.45 398.98 318.45ZM406.381 310.788C406.252 310.788 406.12 310.755 406 310.685C405.638 310.474 405.514 310.01 405.725 309.647C406.387 308.508 406.946 307.301 407.388 306.06C407.529 305.665 407.964 305.459 408.358 305.6C408.753 305.741 408.96 306.175 408.819 306.57C408.346 307.898 407.746 309.19 407.038 310.41C406.897 310.652 406.643 310.788 406.381 310.788ZM409.369 300.56C409.358 300.56 409.347 300.56 409.336 300.56C408.918 300.542 408.592 300.188 408.609 299.769C408.621 299.482 408.627 299.195 408.627 298.906C408.627 297.877 408.551 296.84 408.402 295.821C408.341 295.406 408.629 295.02 409.043 294.96C409.465 294.902 409.844 295.186 409.905 295.601C410.065 296.692 410.146 297.804 410.146 298.906C410.146 299.215 410.14 299.525 410.127 299.832C410.109 300.241 409.773 300.56 409.369 300.56Z" fill="#AFD445"/>
<path d="M382.22 321.262C382.163 321.262 382.105 321.256 382.048 321.243C381.369 321.085 380.691 320.895 380.032 320.677C379.634 320.546 379.418 320.116 379.55 319.718C379.682 319.32 380.109 319.104 380.51 319.236C381.124 319.439 381.757 319.616 382.391 319.763C382.799 319.858 383.053 320.266 382.959 320.675C382.878 321.026 382.565 321.262 382.22 321.262Z" fill="#AFD445"/>
<path d="M379.882 314.272C379.979 314.332 380.102 314.323 380.19 314.251L382.694 312.196C384.129 312.673 385.651 312.926 387.207 312.919L388.944 315.651C389.005 315.747 389.12 315.794 389.23 315.768L393.009 314.867C393.12 314.84 393.201 314.747 393.212 314.634L393.529 311.412C394.921 310.715 396.166 309.803 397.231 308.73L400.392 309.434C400.503 309.459 400.618 309.411 400.677 309.314L402.712 306.004C402.772 305.907 402.763 305.784 402.691 305.696L400.636 303.192C401.114 301.757 401.366 300.235 401.36 298.679L404.092 296.942C404.187 296.882 404.234 296.767 404.208 296.656L403.307 292.877C403.28 292.766 403.187 292.685 403.074 292.674L399.852 292.357C399.155 290.965 398.244 289.721 397.17 288.655L397.874 285.494C397.899 285.383 397.851 285.268 397.754 285.209L394.444 283.174C394.348 283.114 394.224 283.123 394.136 283.195L391.633 285.25C390.197 284.772 388.676 284.52 387.119 284.526L385.383 281.794C385.322 281.699 385.207 281.652 385.096 281.678L381.317 282.579C381.206 282.606 381.125 282.699 381.114 282.812L380.797 286.034C379.405 286.731 378.161 287.642 377.095 288.716L373.934 288.012C373.823 287.987 373.709 288.035 373.649 288.132L371.614 291.442C371.555 291.538 371.563 291.662 371.635 291.75L373.69 294.253C373.213 295.689 372.961 297.21 372.967 298.767L370.235 300.503C370.139 300.564 370.092 300.679 370.119 300.79L371.02 304.569C371.046 304.679 371.14 304.761 371.253 304.772L374.474 305.089C375.171 306.481 376.083 307.725 377.157 308.791L376.452 311.952C376.427 312.063 376.476 312.177 376.572 312.237L379.882 314.272Z" fill="#0E7548"/>
<path d="M387.169 303.694C386.669 303.694 386.167 303.617 385.676 303.463C384.409 303.066 383.373 302.199 382.759 301.023C382.145 299.846 382.025 298.501 382.423 297.235C382.82 295.969 383.687 294.933 384.863 294.319C386.04 293.705 387.385 293.586 388.651 293.982C389.917 294.38 390.953 295.246 391.567 296.423C392.835 298.85 391.892 301.858 389.463 303.127H389.463C388.743 303.503 387.959 303.694 387.169 303.694ZM387.161 296.79C386.854 296.79 386.549 296.864 386.269 297.011C385.812 297.25 385.475 297.652 385.32 298.144C385.166 298.637 385.213 299.16 385.452 299.617C385.69 300.074 386.093 300.411 386.585 300.565C387.077 300.72 387.6 300.673 388.057 300.435C389.001 299.941 389.368 298.773 388.875 297.829C388.636 297.371 388.234 297.035 387.742 296.88C387.551 296.82 387.355 296.79 387.161 296.79Z" fill="#AFD445"/>
<path d="M387.395 308.531C387.12 308.531 386.895 308.311 386.889 308.035C386.889 308.032 386.889 308.028 386.889 308.024C386.889 307.75 387.108 307.524 387.384 307.518C388.011 307.504 388.641 307.423 389.258 307.277C389.273 307.273 389.287 307.269 389.303 307.266C393.92 306.139 396.817 301.561 395.902 296.933C395.88 296.82 395.855 296.706 395.828 296.592C394.694 291.835 389.9 288.888 385.144 290.022C382.839 290.571 380.887 291.985 379.646 294.003C378.776 295.418 378.328 297.011 378.328 298.631C378.328 299.322 378.409 300.017 378.573 300.706C378.946 302.27 379.734 303.701 380.852 304.844C380.948 304.943 380.996 305.07 380.996 305.198C380.996 305.329 380.945 305.461 380.844 305.56C380.643 305.755 380.323 305.751 380.128 305.552C378.882 304.278 378.004 302.684 377.589 300.94C377.406 300.173 377.315 299.399 377.315 298.629C377.316 296.825 377.814 295.049 378.783 293.473C380.166 291.225 382.341 289.649 384.909 289.037C390.209 287.774 395.549 291.058 396.812 296.357C396.995 297.125 397.083 297.893 397.083 298.649C397.083 303.118 394.025 307.18 389.492 308.261C389.434 308.275 389.377 308.288 389.319 308.301C388.727 308.431 388.125 308.507 387.525 308.527C387.519 308.527 387.514 308.528 387.508 308.528C387.474 308.529 387.44 308.53 387.406 308.531C387.403 308.531 387.399 308.531 387.395 308.531Z" fill="#AFD445"/>
</g>
<defs>
<linearGradient id="paint0_linear_13_3773" x1="660.823" y1="511.908" x2="348.235" y2="238.394" gradientUnits="userSpaceOnUse">
<stop stop-color="#36BA56"/>
<stop offset="1" stop-color="#AFD445"/>
</linearGradient>
<linearGradient id="paint1_linear_13_3773" x1="485.502" y1="-239.775" x2="410.583" y2="359.574" gradientUnits="userSpaceOnUse">
<stop stop-color="white"/>
<stop offset="1" stop-color="#BDD0FB"/>
</linearGradient>
<linearGradient id="paint2_linear_13_3773" x1="546.079" y1="425.83" x2="592.39" y2="372.076" gradientUnits="userSpaceOnUse">
<stop stop-color="#0E7548"/>
<stop offset="1" stop-color="#68E577"/>
</linearGradient>
<linearGradient id="paint3_linear_13_3773" x1="618.559" y1="332.869" x2="481.615" y2="539.752" gradientUnits="userSpaceOnUse">
<stop stop-color="#68E577"/>
<stop offset="1" stop-color="#0E7548"/>
</linearGradient>
<linearGradient id="paint4_linear_13_3773" x1="557.003" y1="436.503" x2="603.237" y2="357.366" gradientUnits="userSpaceOnUse">
<stop stop-color="#006F53"/>
<stop offset="1" stop-color="#36BA56"/>
</linearGradient>
<linearGradient id="paint5_linear_13_3773" x1="384.573" y1="488.475" x2="417.402" y2="450.37" gradientUnits="userSpaceOnUse">
<stop stop-color="#0E7548"/>
<stop offset="1" stop-color="#68E577"/>
</linearGradient>
<linearGradient id="paint6_linear_13_3773" x1="435.952" y1="422.578" x2="338.877" y2="569.231" gradientUnits="userSpaceOnUse">
<stop stop-color="#68E577"/>
<stop offset="1" stop-color="#0E7548"/>
</linearGradient>
<linearGradient id="paint7_linear_13_3773" x1="433.056" y1="426.78" x2="381.366" y2="513.56" gradientUnits="userSpaceOnUse">
<stop stop-color="#006F53"/>
<stop offset="1" stop-color="#36BA56"/>
</linearGradient>
<linearGradient id="paint8_linear_13_3773" x1="530.319" y1="497.089" x2="572.442" y2="448.197" gradientUnits="userSpaceOnUse">
<stop stop-color="#0E7548"/>
<stop offset="1" stop-color="#68E577"/>
</linearGradient>
<linearGradient id="paint9_linear_13_3773" x1="596.244" y1="412.537" x2="471.687" y2="600.707" gradientUnits="userSpaceOnUse">
<stop stop-color="#68E577"/>
<stop offset="1" stop-color="#0E7548"/>
</linearGradient>
<linearGradient id="paint10_linear_13_3773" x1="537.301" y1="522.465" x2="590.453" y2="416.162" gradientUnits="userSpaceOnUse">
<stop stop-color="#006F53"/>
<stop offset="1" stop-color="#36BA56"/>
</linearGradient>
<linearGradient id="paint11_linear_13_3773" x1="364.712" y1="209.284" x2="458.766" y2="209.284" gradientUnits="userSpaceOnUse">
<stop stop-color="#0E7548"/>
<stop offset="1" stop-color="#68E577"/>
</linearGradient>
<linearGradient id="paint12_linear_13_3773" x1="366.276" y1="209.284" x2="457.202" y2="209.284" gradientUnits="userSpaceOnUse">
<stop stop-color="#68E577"/>
<stop offset="1" stop-color="#0E7548"/>
</linearGradient>
<linearGradient id="paint13_linear_13_3773" x1="458.396" y1="163.419" x2="524.565" y2="163.419" gradientUnits="userSpaceOnUse">
<stop stop-color="#0E7548"/>
<stop offset="1" stop-color="#68E577"/>
</linearGradient>
<linearGradient id="paint14_linear_13_3773" x1="459.496" y1="163.419" x2="523.465" y2="163.419" gradientUnits="userSpaceOnUse">
<stop stop-color="#68E577"/>
<stop offset="1" stop-color="#0E7548"/>
</linearGradient>
<linearGradient id="paint15_linear_13_3773" x1="321.123" y1="121.773" x2="387.293" y2="121.773" gradientUnits="userSpaceOnUse">
<stop stop-color="#0E7548"/>
<stop offset="1" stop-color="#68E577"/>
</linearGradient>
<linearGradient id="paint16_linear_13_3773" x1="322.223" y1="121.773" x2="386.193" y2="121.773" gradientUnits="userSpaceOnUse">
<stop stop-color="#68E577"/>
<stop offset="1" stop-color="#0E7548"/>
</linearGradient>
<linearGradient id="paint17_linear_13_3773" x1="424.256" y1="380.487" x2="417.675" y2="233.687" gradientUnits="userSpaceOnUse">
<stop stop-color="#2AA275"/>
<stop offset="1" stop-color="#489467"/>
</linearGradient>
<linearGradient id="paint18_linear_13_3773" x1="417.624" y1="235.619" x2="417.624" y2="137.414" gradientUnits="userSpaceOnUse">
<stop stop-color="#36BA56"/>
<stop offset="1" stop-color="#4042E2"/>
</linearGradient>
<linearGradient id="paint19_linear_13_3773" x1="418.223" y1="364.267" x2="415.185" y2="431.086" gradientUnits="userSpaceOnUse">
<stop stop-color="#36BA56"/>
<stop offset="1" stop-color="#06853A"/>
</linearGradient>
<linearGradient id="paint20_linear_13_3773" x1="417.118" y1="437.596" x2="417.118" y2="497.329" gradientUnits="userSpaceOnUse">
<stop stop-color="#0A893C"/>
<stop offset="1" stop-color="#AFD445"/>
</linearGradient>
<linearGradient id="paint21_linear_13_3773" x1="247.104" y1="476.584" x2="243.527" y2="507.796" gradientUnits="userSpaceOnUse">
<stop stop-color="#FEBBBA"/>
<stop offset="1" stop-color="#FF928E"/>
</linearGradient>
<linearGradient id="paint22_linear_13_3773" x1="276.236" y1="479.922" x2="272.659" y2="511.134" gradientUnits="userSpaceOnUse">
<stop stop-color="#FEBBBA"/>
<stop offset="1" stop-color="#FF928E"/>
</linearGradient>
<linearGradient id="paint23_linear_13_3773" x1="244.161" y1="268.372" x2="255.046" y2="301.93" gradientUnits="userSpaceOnUse">
<stop stop-color="#FEBBBA"/>
<stop offset="1" stop-color="#FF928E"/>
</linearGradient>
<linearGradient id="paint24_linear_13_3773" x1="253.07" y1="265.495" x2="262.047" y2="304.652" gradientUnits="userSpaceOnUse">
<stop stop-color="#FEBBBA"/>
<stop offset="1" stop-color="#FF928E"/>
</linearGradient>
<linearGradient id="paint25_linear_13_3773" x1="862.806" y1="466.87" x2="896.59" y2="477.024" gradientUnits="userSpaceOnUse">
<stop stop-color="#FEBBBA"/>
<stop offset="1" stop-color="#FF928E"/>
</linearGradient>
<linearGradient id="paint26_linear_13_3773" x1="216.792" y1="369.572" x2="247.331" y2="369.572" gradientUnits="userSpaceOnUse">
<stop stop-color="#FEBBBA"/>
<stop offset="1" stop-color="#FF928E"/>
</linearGradient>
<linearGradient id="paint27_linear_13_3773" x1="297.511" y1="314.943" x2="306.376" y2="332.186" gradientUnits="userSpaceOnUse">
<stop stop-color="#FEBBBA"/>
<stop offset="1" stop-color="#FF928E"/>
</linearGradient>
<linearGradient id="paint28_linear_13_3773" x1="370.447" y1="222.153" x2="317.801" y2="290.66" gradientUnits="userSpaceOnUse">
<stop stop-color="#AFD445"/>
<stop offset="1" stop-color="#006F53"/>
</linearGradient>
<linearGradient id="paint29_linear_13_3773" x1="343.828" y1="245.204" x2="375.764" y2="245.204" gradientUnits="userSpaceOnUse">
<stop stop-color="#006F53"/>
<stop offset="1" stop-color="#36BA56"/>
</linearGradient>
<linearGradient id="paint30_linear_13_3773" x1="373.203" y1="237.383" x2="329.637" y2="261.167" gradientUnits="userSpaceOnUse">
<stop stop-color="#36BA56"/>
<stop offset="1" stop-color="#FFD919"/>
</linearGradient>
<linearGradient id="paint31_linear_13_3773" x1="311.629" y1="303.812" x2="323.394" y2="303.812" gradientUnits="userSpaceOnUse">
<stop stop-color="#FEBBBA"/>
<stop offset="1" stop-color="#FF928E"/>
</linearGradient>
<linearGradient id="paint32_linear_13_3773" x1="437.636" y1="527.654" x2="489.441" y2="467.522" gradientUnits="userSpaceOnUse">
<stop stop-color="#0E7548"/>
<stop offset="1" stop-color="#68E577"/>
</linearGradient>
<linearGradient id="paint33_linear_13_3773" x1="518.715" y1="423.664" x2="365.524" y2="655.093" gradientUnits="userSpaceOnUse">
<stop stop-color="#68E577"/>
<stop offset="1" stop-color="#0E7548"/>
</linearGradient>
<linearGradient id="paint34_linear_13_3773" x1="461.172" y1="530.525" x2="507.068" y2="436.37" gradientUnits="userSpaceOnUse">
<stop stop-color="#006F53"/>
<stop offset="1" stop-color="#36BA56"/>
</linearGradient>
<clipPath id="clip0_13_3773">
<rect width="595" height="842" fill="white" transform="matrix(0 1 -1 0 842 0)"/>
</clipPath>
</defs>
</svg>
